<?xml version="1.0" encoding="UTF-8"?>
<!-- Created with Inkscape (http://www.inkscape.org/) -->
<svg width="126mm" height="175mm" version="1.1" viewBox="0 0 126 175" xmlns="http://www.w3.org/2000/svg" xmlns:cc="http://creativecommons.org/ns#" xmlns:dc="http://purl.org/dc/elements/1.1/" xmlns:rdf="http://www.w3.org/1999/02/22-rdf-syntax-ns#">
 <metadata>
  <rdf:RDF>
   <cc:Work rdf:about="">
    <dc:format>image/svg+xml</dc:format>
    <dc:type rdf:resource="http://purl.org/dc/dcmitype/StillImage"/>
    <dc:title/>
   </cc:Work>
  </rdf:RDF>
 </metadata>
 <g transform="translate(0,-122)">
  <g transform="matrix(.26458 0 0 .26458 -17.449 -161.23)">
   <g transform="translate(179.68 1147)" fill="#000">
    <path transform="translate(-216.16 -1320.7)" d="m218.09 1783.9a3.211 3.211 0 1 1 2.461 0.062 3.1 3.1 0 0 1-2.461-0.062zm34.35 19.534 1.893-4.272-22.246-9.857-1.893 4.271-0.776-0.345 4.007-9.042 23.022 10.2 1.893-4.272 0.776 0.344-5.9 13.315z"/>
    <path transform="translate(-220.89 -1315.4)" d="m240.66 1773.3 1.893-4.271-7.157-3.171q0.363-0.369 0.647-0.709a5.977 5.977 0 0 0 0.7-1.283 5.207 5.207 0 0 0 0.446-1.528 3.953 3.953 0 0 0-0.122-1.448l7.6 3.368 3.49-7.878 0.778 0.345-3.49 7.877 18.141 8.037a9.4 9.4 0 0 0 2.659 0.813 4.167 4.167 0 0 0 1.854-0.14 2.633 2.633 0 0 0 1.172-0.775 4.516 4.516 0 0 0 0.671-1.063 4.265 4.265 0 0 0-0.026-3.761 7.5 7.5 0 0 0-2.569-2.965l0.621-0.652a14.126 14.126 0 0 1 1.388 1.211 6.132 6.132 0 0 1 1.237 1.776 5.885 5.885 0 0 1 0.532 2.393 7.057 7.057 0 0 1-0.7 3.007q-1.844 4.162-4.177 5.084a6.657 6.657 0 0 1-5.275-0.379l-17.641-7.816-1.893 4.272z"/>
    <path transform="translate(-220.44 -1310)" d="m248.01 1745.7a20.735 20.735 0 0 0-1.08-3.629 13.185 13.185 0 0 0-1.339-2.519 7.225 7.225 0 0 0-1.4-1.551 6.184 6.184 0 0 0-1.245-0.784 4.546 4.546 0 0 0-3.327-0.279 3.061 3.061 0 0 1 0.33 3 3.619 3.619 0 0 1-1.686 1.708 2.892 2.892 0 0 1-2.661 0.016 3.276 3.276 0 0 1-1.789-1.955 3.635 3.635 0 0 1 0.126-2.83 4.086 4.086 0 0 1 1.348-1.693 5.616 5.616 0 0 1 1.927-0.9 5.86 5.86 0 0 1 2.237-0.1 8.323 8.323 0 0 1 2.243 0.629 8.9 8.9 0 0 1 2.9 2.08 16.7 16.7 0 0 1 2.2 2.9 15.394 15.394 0 0 1 1.421 3.084 19.253 19.253 0 0 1 0.692 2.631z"/>
    <path transform="translate(-227.76 -1305.9)" d="m277.2 1740.1 0.27-0.61a22.544 22.544 0 0 0 3.133 0.194 10.424 10.424 0 0 0 3.223-0.531 8.8 8.8 0 0 0 2.975-1.7 9.006 9.006 0 0 0 2.32-3.287 5.473 5.473 0 0 0 0.319-3.641 4.589 4.589 0 0 0-2.908-2.948 3.922 3.922 0 0 0-3.447-0.232 9.264 9.264 0 0 0-2.477 1.922l-3.416 3.664q-0.646 0.709-1.492 1.495a7.12 7.12 0 0 1-1.963 1.286 6.2 6.2 0 0 1-2.516 0.511 7.977 7.977 0 0 1-3.23-0.8 7.481 7.481 0 0 1-2.615-1.889 8.033 8.033 0 0 1-2.027-5.909 9.817 9.817 0 0 1 0.858-3.436 8.861 8.861 0 0 1 1.067-1.882q0.526-0.663 0.965-1.132t0.832-0.827a2.835 2.835 0 0 0 0.66-0.969 1.055 1.055 0 0 0-0.051-1.083l0.271-0.61 6.324 2.8-0.27 0.61a26.213 26.213 0 0 0-2.751-0.157 10.386 10.386 0 0 0-2.554 0.295 5.323 5.323 0 0 0-2.149 1.106 5.979 5.979 0 0 0-1.569 2.192 7 7 0 0 0-0.638 4.662 4.26 4.26 0 0 0 2.538 2.882 3.419 3.419 0 0 0 3.244-0.056 14.293 14.293 0 0 0 3.327-2.94l3.126-3.459a12.761 12.761 0 0 1 4.333-3.19 5.853 5.853 0 0 1 4.842 0.154 8.536 8.536 0 0 1 2.683 1.885 7.8 7.8 0 0 1 1.763 2.838 9.612 9.612 0 0 1 0.518 3.549 10.779 10.779 0 0 1-0.994 4.038 10.334 10.334 0 0 1-1.245 2.137q-0.7 0.917-1.362 1.653t-1.226 1.348a4.486 4.486 0 0 0-0.839 1.222 1.419 1.419 0 0 0-0.144 1 2.551 2.551 0 0 0 0.33 0.677l-0.27 0.61z"/>
    <path transform="translate(-233.1 -1293.6)" d="m316.39 1670.7a8.291 8.291 0 0 1 0.21 2.15 6.963 6.963 0 0 1-0.666 2.625 5.971 5.971 0 0 1-2.845 3.352 6.6 6.6 0 0 1-3.915 0.223l-0.049 0.111q0.4 0.443 0.977 1.164a5.421 5.421 0 0 1 0.914 1.832 7.219 7.219 0 0 1 0.219 2.651 11.234 11.234 0 0 1-1.028 3.594 11.727 11.727 0 0 1-2.173 3.484 6.614 6.614 0 0 1-2.262 1.587 4.129 4.129 0 0 1-2.2 0.251 7.989 7.989 0 0 1-1.914-0.549 6.043 6.043 0 0 1-2.761-2.15 6.3 6.3 0 0 1-0.961-2.849 14.669 14.669 0 0 1 0.091-3.277q0.233-1.722 0.421-3.5 0.2-2.1 0.286-3.491a5.878 5.878 0 0 0-0.257-2.338 3.629 3.629 0 0 0-1.2-1.628 12.02 12.02 0 0 0-2.524-1.418 17.03 17.03 0 0 0-2.46-0.891 5.535 5.535 0 0 0-2.073-0.188 3.105 3.105 0 0 0-1.7 0.771 5.822 5.822 0 0 0-1.372 2.048 6.975 6.975 0 0 0-0.7 3.306 2.384 2.384 0 0 0 1.552 2.114 11.276 11.276 0 0 0 1.933 0.657 9.317 9.317 0 0 1 1.432 0.437 1.892 1.892 0 0 1 1.058 1.132 2.464 2.464 0 0 1-0.186 1.843q-0.811 1.831-1.673 1.98a3.322 3.322 0 0 1-1.917-0.319 5.626 5.626 0 0 1-2.084-1.587 6.433 6.433 0 0 1-1.245-2.51 8.915 8.915 0 0 1-0.155-3.32 14.013 14.013 0 0 1 1.161-3.965 13.557 13.557 0 0 1 2.53-3.99 8.085 8.085 0 0 1 2.949-2.012 6.873 6.873 0 0 1 3.1-0.417 10.04 10.04 0 0 1 3.054 0.823l13.815 6.12a3.671 3.671 0 0 0 2.385 0.459 2.009 2.009 0 0 0 1.194-1.2 4.422 4.422 0 0 0 0.343-1.375 5.119 5.119 0 0 0-0.1-1.57zm-17.283 3.957-0.049 0.111q0.673 0.433 0.632 2.47l-0.18 4.9a6.656 6.656 0 0 0 0.821 3.615 5.9 5.9 0 0 0 2.828 2.381 10.082 10.082 0 0 0 1.794 0.595 4.763 4.763 0 0 0 1.851 0.091 3.69 3.69 0 0 0 1.691-0.744 4.67 4.67 0 0 0 1.365-1.883 5.639 5.639 0 0 0 0.538-3.312 5.567 5.567 0 0 0-1.179-2.58 8.992 8.992 0 0 0-2.18-1.9 19.428 19.428 0 0 0-2.383-1.287z"/>
    <path transform="translate(-230.56 -1285.8)" d="m313.96 1662.2 1.893-4.272-38.449-17.034-1.893 4.271-0.777-0.344 4.007-9.042 39.222 17.378 1.893-4.272 0.778 0.344-5.9 13.314z"/>
    <path transform="translate(-232.77 -1280.8)" d="m322.95 1641.9 1.893-4.272-38.444-17.033-1.891 4.271-0.778-0.344 4.007-9.042 39.222 17.378 1.892-4.272 0.777 0.344-5.9 13.314z"/>
    <path transform="translate(-270.16 -1210)" d="m467.13 1330.5a8.321 8.321 0 0 1 0.209 2.15 6.934 6.934 0 0 1-0.666 2.625 5.974 5.974 0 0 1-2.845 3.352 6.6 6.6 0 0 1-3.916 0.224l-0.048 0.111q0.4 0.443 0.978 1.163a5.433 5.433 0 0 1 0.913 1.832 7.254 7.254 0 0 1 0.219 2.652 11.271 11.271 0 0 1-1.028 3.593 11.728 11.728 0 0 1-2.173 3.483 6.605 6.605 0 0 1-2.263 1.587 4.136 4.136 0 0 1-2.2 0.252 7.956 7.956 0 0 1-1.913-0.55 6.052 6.052 0 0 1-2.764-2.152 6.313 6.313 0 0 1-0.96-2.849 14.619 14.619 0 0 1 0.091-3.277q0.232-1.723 0.422-3.5 0.2-2.1 0.286-3.49a5.868 5.868 0 0 0-0.259-2.339 3.637 3.637 0 0 0-1.2-1.627 12.131 12.131 0 0 0-2.524-1.417 16.745 16.745 0 0 0-2.459-0.89 5.541 5.541 0 0 0-2.074-0.189 3.105 3.105 0 0 0-1.7 0.772 5.828 5.828 0 0 0-1.371 2.047 6.966 6.966 0 0 0-0.7 3.306 2.383 2.383 0 0 0 1.552 2.113 11.211 11.211 0 0 0 1.931 0.658 9.212 9.212 0 0 1 1.433 0.437 1.888 1.888 0 0 1 1.059 1.132 2.459 2.459 0 0 1-0.186 1.842q-0.811 1.831-1.673 1.98a3.32 3.32 0 0 1-1.916-0.319 5.623 5.623 0 0 1-2.084-1.587 6.431 6.431 0 0 1-1.244-2.509 8.921 8.921 0 0 1-0.155-3.321 14.05 14.05 0 0 1 1.16-3.966 13.553 13.553 0 0 1 2.53-3.989 8.091 8.091 0 0 1 2.949-2.012 6.854 6.854 0 0 1 3.1-0.416 10.016 10.016 0 0 1 3.054 0.822l13.814 6.121a3.679 3.679 0 0 0 2.385 0.459 2.009 2.009 0 0 0 1.193-1.2 4.4 4.4 0 0 0 0.343-1.374 5.031 5.031 0 0 0-0.1-1.571zm-17.284 3.956-0.049 0.111q0.672 0.433 0.632 2.47l-0.18 4.9a6.627 6.627 0 0 0 0.82 3.615 5.9 5.9 0 0 0 2.828 2.382 10.128 10.128 0 0 0 1.793 0.594 4.79 4.79 0 0 0 1.851 0.09 3.685 3.685 0 0 0 1.691-0.745 4.67 4.67 0 0 0 1.365-1.883 5.637 5.637 0 0 0 0.538-3.312 5.556 5.556 0 0 0-1.179-2.58 8.965 8.965 0 0 0-2.18-1.9 19.387 19.387 0 0 0-2.382-1.287z"/>
    <path transform="translate(-267.62 -1199.5)" d="m464.69 1319.3 1.893-4.272-38.445-17.033-1.893 4.271-0.777-0.345 4.006-9.042 20.638 9.144 0.049-0.112a8.859 8.859 0 0 1-2.48-4.284 8.413 8.413 0 0 1 0.689-5.6 11.065 11.065 0 0 1 3.017-4.039 13.958 13.958 0 0 1 9.462-3.308 13.775 13.775 0 0 1 9.613 4.293 14.961 14.961 0 0 1 2.91 4.442 14.1 14.1 0 0 1 1.121 5.109 11.535 11.535 0 0 1-1 5.1 7.885 7.885 0 0 1-2.051 2.907 8.325 8.325 0 0 1-2.484 1.485 7.419 7.419 0 0 1-2.408 0.492 16.3 16.3 0 0 1-1.9-0.047l-0.05 0.11 4.827 2.139-3.957 8.932zm-1.776-28.2a37.173 37.173 0 0 0-4.7-1.75 12.782 12.782 0 0 0-3.9-0.566 5.69 5.69 0 0 0-3.08 0.959 6.514 6.514 0 0 0-2.19 2.845 7.729 7.729 0 0 0-0.777 3.7 7.186 7.186 0 0 0 0.872 2.974 7.524 7.524 0 0 0 1.235 1.708 11.732 11.732 0 0 0 1.85 1.517 24.375 24.375 0 0 0 2.666 1.547q1.544 0.783 3.707 1.742a29.2 29.2 0 0 0 3.9 1.395 12.776 12.776 0 0 0 3.99 0.506 7.365 7.365 0 0 0 3.55-1.048 6.956 6.956 0 0 0 2.658-3.3 7.039 7.039 0 0 0 0.71-4 5.871 5.871 0 0 0-1.667-3.128 14.627 14.627 0 0 0-3.655-2.614q-2.285-1.206-5.169-2.484z"/>
    <path transform="translate(-278.91 -1189.7)" d="m479.39 1271.9a11.939 11.939 0 0 1-4.52-3.429 15.344 15.344 0 0 1-3.462-10.161 12.365 12.365 0 0 1 4.006-9.044 15.352 15.352 0 0 1 9.853-4.262 11.925 11.925 0 0 1 5.576 1.044 12.191 12.191 0 0 1 4.418 3.285 15.037 15.037 0 0 1 3.619 10.031 13.011 13.011 0 0 1-4.228 9.542 15.043 15.043 0 0 1-9.862 4.06 12.188 12.188 0 0 1-5.4-1.066zm2.457-5.547a28.072 28.072 0 0 0 6.54 2.167 10.53 10.53 0 0 0 4.29-0.023 5.067 5.067 0 0 0 2.669-1.6 11.471 11.471 0 0 0 2.507-5.658 5.06 5.06 0 0 0-0.6-3.056 10.565 10.565 0 0 0-2.865-3.2 28.22 28.22 0 0 0-6-3.387 32.251 32.251 0 0 0-5.772-2.026 11.424 11.424 0 0 0-4.263-0.263 5.743 5.743 0 0 0-3.045 1.405 9.928 9.928 0 0 0-2.9 6.547 5.734 5.734 0 0 0 1 3.2 11.424 11.424 0 0 0 3.06 2.981 32.058 32.058 0 0 0 5.379 2.914z"/>
    <path transform="translate(-281.75 -1179)" d="m520.16 1207.6-3.957 8.932-5.6-2.483-0.049 0.111a22.431 22.431 0 0 1 1.719 2.189 9.989 9.989 0 0 1 1.29 2.629 9.535 9.535 0 0 1 0.44 3.049 8.811 8.811 0 0 1-0.831 3.448 11.848 11.848 0 0 1-2.1 3.385 9.93 9.93 0 0 1-2.013 1.7 11.606 11.606 0 0 1-1.074 0.551 4.438 4.438 0 0 1-1.518 0.357 8.6 8.6 0 0 1-2.154-0.158 13.126 13.126 0 0 1-2.925-0.964l-15.755-6.98-1.893 4.272-0.776-0.345 4.006-9.043 17.031 7.543a18.512 18.512 0 0 0 2.749 0.986 6.414 6.414 0 0 0 2.467 0.2 4.53 4.53 0 0 0 2.081-0.8 4.943 4.943 0 0 0 1.56-2.1 5.692 5.692 0 0 0 0.4-2.844 9.012 9.012 0 0 0-1-3.295 12.863 12.863 0 0 0-2.391-3.216 12.573 12.573 0 0 0-3.867-2.576l-12.871-5.7-1.868 4.217-0.778-0.345 3.982-8.987 23.024 10.2 1.893-4.272z"/>
    <path transform="translate(-284.57 -1171.7)" d="m499.7 1188.6 1.892-4.271-7.157-3.171c0.242-0.247 0.459-0.482 0.647-0.709a6.033 6.033 0 0 0 0.7-1.282 5.214 5.214 0 0 0 0.445-1.529 3.951 3.951 0 0 0-0.122-1.448l7.6 3.367 3.49-7.877 0.778 0.344-3.49 7.878 18.141 8.037a9.428 9.428 0 0 0 2.659 0.813 4.155 4.155 0 0 0 1.854-0.14 2.638 2.638 0 0 0 1.173-0.774 4.552 4.552 0 0 0 0.67-1.063 4.265 4.265 0 0 0-0.026-3.761 7.5 7.5 0 0 0-2.569-2.965l0.621-0.653a14.054 14.054 0 0 1 1.388 1.212 6.127 6.127 0 0 1 1.237 1.776 5.882 5.882 0 0 1 0.532 2.393 7.055 7.055 0 0 1-0.7 3.007q-1.844 4.161-4.177 5.085a6.663 6.663 0 0 1-5.274-0.379l-17.642-7.816-1.893 4.272z"/>
   </g>
   <g transform="translate(67.746 1071.3)">
    <path transform="translate(-67.746 -1071.3)" d="m83.43 1071.3h226.17v12.821l-77.549 0.106 119.09 289.8 124.61-289.9h-76.621v-12.821h141.24v12.821h-49.858l-152.3 356.3q-17.534 39.7-33.23 79.847t-31.381 80.764a601.06 601.06 0 0 1-25.853 58.152q-12.938 24.922-27.232 40.618-14.317 15.679-30.921 23.532t-38.768 7.849q-26.779 0-42.928-8.284t-25.383-19.325q-9.226-11.065-12-23.013a92.957 92.957 0 0 1-2.769-20.245q0-23.014 12.915-34.515 12.921-11.524 31.392-11.512a74.681 74.681 0 0 1 13.834 1.39 43.426 43.426 0 0 1 13.846 5.079 34.517 34.517 0 0 1 11.089 10.158 26.266 26.266 0 0 1 4.619 15.683 42.774 42.774 0 0 1-7.849 24.464 44.132 44.132 0 0 0-7.848 25.382q0 12 6.458 15.7 6.468 3.677 17.546 3.688a55.193 55.193 0 0 0 27.221-6.917q12.462-6.946 24.463-22.613 12-15.714 24-41.078 11.983-25.4 26.773-62.336l40.618-103.45-159.69-395.32h-63.703z" fill="#000"/>
   </g>
  </g>
 </g>
</svg>
