<?xml version="1.0" encoding="UTF-8"?>
<svg width="480" height="350" version="1.1" viewBox="0 0 480 350" xmlns="http://www.w3.org/2000/svg" xmlns:cc="http://creativecommons.org/ns#" xmlns:dc="http://purl.org/dc/elements/1.1/" xmlns:rdf="http://www.w3.org/1999/02/22-rdf-syntax-ns#">
 <metadata>
  <rdf:RDF>
   <cc:Work rdf:about="">
    <dc:format>image/svg+xml</dc:format>
    <dc:type rdf:resource="http://purl.org/dc/dcmitype/StillImage"/>
    <dc:title/>
   </cc:Work>
  </rdf:RDF>
 </metadata>
 <g transform="matrix(1.0082 -.0061565 .0061565 1.0082 -907.15 -296.08)">
  <g transform="translate(1170.2 302.3)">
   <path transform="translate(-1301.6 -302.3)" d="m1464.7 494.18a94.888 94.888 0 0 1-17.138 19.214 114.37 114.37 0 0 1-26.744 17.137q-15.847 7.522-38.169 7.529t-37.65-7.27a72.556 72.556 0 0 1-24.926-18.695 73.671 73.671 0 0 1-14.022-25.186 87.228 87.228 0 0 1-4.413-26.744q0-25.961 12.723-53.748a204.56 204.56 0 0 1 33.235-50.891 188.1 188.1 0 0 1 46.477-38.169q25.962-15.054 52.972-15.054a94.372 94.372 0 0 1 20.772 2.337 68.67 68.67 0 0 1 18.695 7.01 41.114 41.114 0 0 1 13.5 11.944q5.186 7.279 5.194 17.656a41.654 41.654 0 0 1-7.53 24.667 67.666 67.666 0 0 1-19.474 18.176 136.13 136.13 0 0 1-26.225 12.723 205.67 205.67 0 0 1-27.782 8.049q-13.511 2.86-24.667 4.154a157.49 157.49 0 0 1-16.358 1.3q-8.837 0-17.137-0.519a141.27 141.27 0 0 1-14.54-1.558q-5.721 16.626-9.607 32.975a148.7 148.7 0 0 0-3.895 34.533q0 28.043 14.541 41.8t36.87 13.762q16.614 0 29.34-6.491a99.738 99.738 0 0 0 22.33-15.319 116.72 116.72 0 0 0 16.1-17.917q6.488-9.079 10.645-14.281l6.232 3.635a140.8 140.8 0 0 0-9.349 13.241zm2.077-177.34q-6.232-7.267-20.772-7.271-16.1 0-30.9 9.348a120.69 120.69 0 0 0-26.744 23.108 174.94 174.94 0 0 0-20.771 29.6 185.92 185.92 0 0 0-13.5 29.34 154.76 154.76 0 0 0 26.484 2.077 107.74 107.74 0 0 0 35.313-5.713 109.06 109.06 0 0 0 29.34-15.06 75.509 75.509 0 0 0 20.253-21.811 49.544 49.544 0 0 0 7.53-25.965 26.223 26.223 0 0 0-6.233-17.653z" fill="#000"/>
  </g>
  <g transform="translate(897.85 307.52)">
   <path transform="translate(-897.85 -310.04)" d="m897.85 640.55h52.335v-322.5h-52.335v-6.6h82.511q7.072 0 14.38-0.236t14.852-0.707q7.537 0 14.617-0.235t13.673-0.236q34.412 0 56.579 8.251t34.89 20.274q12.73 12.023 17.445 25.932t4.715 25.225a61.652 61.652 0 0 1-6.837 28.761 76.645 76.645 0 0 1-18.388 23.1 96.209 96.209 0 0 1-26.639 16.031 119.4 119.4 0 0 1-31.589 8.015v0.943a148.61 148.61 0 0 1 34.654 7.308 114.88 114.88 0 0 1 32.061 16.5 84.7 84.7 0 0 1 23.339 26.167q8.951 15.559 8.959 35.833a93.151 93.151 0 0 1-8.016 38.9 81.565 81.565 0 0 1-24.046 30.411q-16.035 12.73-40.548 20.038t-57.05 7.308q-6.609 0-12.967-0.235t-13.437-0.707q-7.072-0.475-14.617-0.708t-16.03-0.235h-82.511zm99.484-176.81h43.377a82.333 82.333 0 0 0 24.046-3.3 41.921 41.921 0 0 0 18.624-11.551q7.78-8.244 12.023-22.4t4.244-35.833q0-24.51-6.365-39.369t-16.5-22.4a54.449 54.449 0 0 0-22.631-9.9 133.51 133.51 0 0 0-24.754-2.358q-8.487 0-17.209 0.236a122.36 122.36 0 0 0-14.852 1.179zm0 176.81q5.657 0.475 12.494 1.179t19.567 0.707q22.157 0 37.955-4.243t25.932-14.853q10.134-10.608 14.852-28.053t4.715-43.848q0-37.716-16.03-59.408t-47.62-21.689h-51.865z" fill="#000"/>
  </g>
  <g transform="translate(1169.2 567.66)" fill="#000">
   <path transform="translate(-1300.3 -707.14)" d="m1323.7 730.74-3.646 9.926h11.039l-0.4 1.418h-11.045l-11.546 32.209q-0.508 1.519-1.013 3.14a10.8 10.8 0 0 0-0.506 3.241 3.676 3.676 0 0 0 0.76 2.431 3.056 3.056 0 0 0 2.481 0.911 5.966 5.966 0 0 0 3.444-1.114 16.431 16.431 0 0 0 2.937-2.583 19.6 19.6 0 0 0 2.228-2.988 24.146 24.146 0 0 0 1.317-2.431l1.215 0.507q-0.406 0.812-1.317 2.482a17.414 17.414 0 0 1-2.431 3.342 13.915 13.915 0 0 1-3.8 2.887 11.369 11.369 0 0 1-5.418 1.215q-3.85 0-5.773-1.874a6.059 6.059 0 0 1-1.924-4.507 16.545 16.545 0 0 1 0.759-4.608q0.76-2.583 1.57-4.71l9.926-27.549h-9.109l0.4-1.418h9.116l3.646-9.926z"/>
   <path transform="translate(-1312.9 -695.75)" d="m1357.3 697.17 0.4-1.418h16l-16.915 45.882h0.2q1.52-2.024 3.545-4.3a35.084 35.084 0 0 1 4.457-4.2 26.4 26.4 0 0 1 5.115-3.19 12.59 12.59 0 0 1 5.418-1.266 9.575 9.575 0 0 1 6.736 2.279 7.33 7.33 0 0 1 2.481 5.621 10.7 10.7 0 0 1-0.557 3.393q-0.559 1.671-1.367 4l-6.584 18.739q-0.608 1.723-1.114 3.392a11.284 11.284 0 0 0-0.506 3.292 4.9 4.9 0 0 0 0.506 2.228 2.14 2.14 0 0 0 2.127 1.012 5.9 5.9 0 0 0 3.343-1.012 14.468 14.468 0 0 0 2.785-2.431 18.161 18.161 0 0 0 2.178-2.988q0.911-1.568 1.418-2.684l1.114 0.507q-0.509 1.014-1.418 2.684a17.183 17.183 0 0 1-2.38 3.292 13.586 13.586 0 0 1-3.6 2.785 10.412 10.412 0 0 1-5.064 1.165 9.985 9.985 0 0 1-5.469-1.418 5.1 5.1 0 0 1-2.229-4.658 11.236 11.236 0 0 1 0.354-2.736q0.354-1.416 0.861-3.038l8.508-24.206a13.351 13.351 0 0 0 0.81-4.052 4.327 4.327 0 0 0-0.861-2.532 3.536 3.536 0 0 0-3.089-1.216 10.779 10.779 0 0 0-5.165 1.672 28.741 28.741 0 0 0-5.875 4.558 41.929 41.929 0 0 0-5.52 6.786 38.739 38.739 0 0 0-4.2 8.458l-7.6 21.169h-6.989l27.347-75.558z"/>
   <path transform="translate(-1338.4 -711.3)" d="m1449.3 780.93a18.513 18.513 0 0 1-3.342 3.748 22.334 22.334 0 0 1-5.216 3.343 17.257 17.257 0 0 1-7.445 1.468 17.057 17.057 0 0 1-7.338-1.419 14.142 14.142 0 0 1-4.862-3.646 14.364 14.364 0 0 1-2.734-4.912 17.017 17.017 0 0 1-0.861-5.217 25.1 25.1 0 0 1 2.482-10.483 39.908 39.908 0 0 1 6.482-9.925 36.669 36.669 0 0 1 9.064-7.445 20.372 20.372 0 0 1 10.331-2.937 18.439 18.439 0 0 1 4.052 0.456 13.4 13.4 0 0 1 3.646 1.367 8.029 8.029 0 0 1 2.633 2.33 5.78 5.78 0 0 1 1.013 3.444 8.122 8.122 0 0 1-1.469 4.81 13.176 13.176 0 0 1-3.8 3.545 26.558 26.558 0 0 1-5.115 2.482 40.17 40.17 0 0 1-5.418 1.57q-2.636 0.558-4.812 0.81a30.772 30.772 0 0 1-3.19 0.253q-1.724 0-3.343-0.1a27.575 27.575 0 0 1-2.836-0.3q-1.116 3.243-1.874 6.431a28.993 28.993 0 0 0-0.76 6.736q0 5.469 2.836 8.153a10.037 10.037 0 0 0 7.191 2.684 12.422 12.422 0 0 0 5.723-1.265 19.431 19.431 0 0 0 4.355-2.988 22.774 22.774 0 0 0 3.14-3.494q1.265-1.771 2.077-2.785l1.215 0.709a27.663 27.663 0 0 0-1.825 2.577zm0.405-34.589a5.084 5.084 0 0 0-4.051-1.418 11.124 11.124 0 0 0-6.027 1.824 23.549 23.549 0 0 0-5.216 4.507 34.136 34.136 0 0 0-4.051 5.774 36.257 36.257 0 0 0-2.634 5.722 30.152 30.152 0 0 0 5.165 0.405 21.019 21.019 0 0 0 6.887-1.114 21.258 21.258 0 0 0 5.723-2.937 14.729 14.729 0 0 0 3.95-4.254 9.665 9.665 0 0 0 1.468-5.064 5.116 5.116 0 0 0-1.213-3.445z"/>
   <path transform="translate(-1358.4 -711.64)" d="m1491.6 752.05q0.809-2.734 1.621-5.469h-8.812l0.4-1.418h15.6q-0.508 2.128-1.469 5.369t-2.076 6.28l0.2 0.2q1.011-1.52 2.532-3.647a35.093 35.093 0 0 1 3.444-4.1 20.135 20.135 0 0 1 4.254-3.342 9.639 9.639 0 0 1 4.963-1.367 7.426 7.426 0 0 1 5.723 2.127 6.21 6.21 0 0 1 1.874 4.558 5.76 5.76 0 0 1-0.557 2.684 4.2 4.2 0 0 1-1.418 1.621 5.434 5.434 0 0 1-1.772 0.759 7.878 7.878 0 0 1-1.722 0.2 3.676 3.676 0 0 1-2.33-0.709 2.525 2.525 0 0 1-0.911-2.127 2.6 2.6 0 0 1 0.455-1.671q0.456-0.555 0.963-1.063a10.408 10.408 0 0 0 0.962-1.115 2.635 2.635 0 0 0 0.456-1.62 1.928 1.928 0 0 0-0.811-1.621 3.282 3.282 0 0 0-2.025-0.608 7.672 7.672 0 0 0-4.457 1.975 30.942 30.942 0 0 0-5.014 5.064 54.636 54.636 0 0 0-8.356 14.94l-7.293 20.662h-7.09l10.939-31.2q0.916-2.626 1.727-5.362z"/>
   <path transform="translate(-1377.2 -711.3)" d="m1568.4 780.93a18.516 18.516 0 0 1-3.343 3.748 22.316 22.316 0 0 1-5.216 3.343 17.253 17.253 0 0 1-7.444 1.468 17.057 17.057 0 0 1-7.343-1.418 14.135 14.135 0 0 1-4.861-3.646 14.361 14.361 0 0 1-2.735-4.912 17.031 17.031 0 0 1-0.861-5.217 25.11 25.11 0 0 1 2.481-10.483 39.9 39.9 0 0 1 6.482-9.925 36.67 36.67 0 0 1 9.065-7.445 20.368 20.368 0 0 1 10.331-2.937 18.438 18.438 0 0 1 4.051 0.456 13.393 13.393 0 0 1 3.646 1.367 8.029 8.029 0 0 1 2.633 2.33 5.781 5.781 0 0 1 1.013 3.444 8.121 8.121 0 0 1-1.468 4.81 13.184 13.184 0 0 1-3.8 3.545 26.539 26.539 0 0 1-5.115 2.482 40.163 40.163 0 0 1-5.418 1.57q-2.634 0.558-4.811 0.81a30.771 30.771 0 0 1-3.191 0.253q-1.723 0-3.343-0.1a27.561 27.561 0 0 1-2.835-0.3q-1.116 3.243-1.874 6.431a29 29 0 0 0-0.759 6.736q0 5.469 2.836 8.153a10.038 10.038 0 0 0 7.191 2.684 12.421 12.421 0 0 0 5.723-1.265 19.449 19.449 0 0 0 4.356-2.988 22.776 22.776 0 0 0 3.14-3.494q1.265-1.771 2.077-2.785l1.215 0.709a27.353 27.353 0 0 0-1.823 2.576zm0.4-34.589a5.085 5.085 0 0 0-4.051-1.418 11.122 11.122 0 0 0-6.026 1.824 23.533 23.533 0 0 0-5.216 4.507 34.146 34.146 0 0 0-4.051 5.774 36.3 36.3 0 0 0-2.634 5.722 30.152 30.152 0 0 0 5.166 0.405 21.018 21.018 0 0 0 6.887-1.114 21.246 21.246 0 0 0 5.723-2.937 14.731 14.731 0 0 0 3.95-4.254 9.66 9.66 0 0 0 1.468-5.064 5.112 5.112 0 0 0-1.211-3.445z"/>
  </g>
 </g>
</svg>
