<svg xmlns="http://www.w3.org/2000/svg" width="171.297" height="25.378" viewBox="0 0 171.297 25.378"><g transform="translate(-657.666 -202)"><rect width="3.693" height="24.475" transform="translate(657.666 202.452)" fill="#000"/><path d="M463.207,226.867h4.3L482.1,202.392h-4.3Z" transform="translate(305.42 0.06)" fill="#000"/><path d="M333.13,205.11a9.537,9.537,0,0,1,2.538.331l1.833-3.074a12.644,12.644,0,0,0-4.324-.728,12.464,12.464,0,0,0-9.066,3.709,12.634,12.634,0,0,0,.364,18.388c.062.054.126.1.189.158l1.89-3.17a9.446,9.446,0,0,1,.125-12.95,8.72,8.72,0,0,1,6.451-2.664" transform="translate(362.725 0.362)" fill="#000"/><path d="M345.731,205.821l-1.81,3.036q.326.278.635.594a9.5,9.5,0,0,1-.032,13.124,8.8,8.8,0,0,1-6.5,2.664,8.562,8.562,0,0,1-3.454-.7l-1.809,3.034a12.333,12.333,0,0,0,5.214,1.125A12.631,12.631,0,0,0,347.124,225a12.04,12.04,0,0,0,3.77-8.957,12.233,12.233,0,0,0-3.755-8.988,14.107,14.107,0,0,0-1.409-1.235" transform="translate(357.736 -1.315)" fill="#000"/><path d="M406.909,201.638a12.475,12.475,0,0,0-9.068,3.709,12.638,12.638,0,0,0,.365,18.389,12.934,12.934,0,0,0,17.657-.413,12.03,12.03,0,0,0,3.773-8.957,12.8,12.8,0,0,0-12.728-12.728m6.357,19.259a9.186,9.186,0,1,1-6.4-15.788,8.637,8.637,0,0,1,6.435,2.664,9.5,9.5,0,0,1-.031,13.124" transform="translate(333.155 0.362)" fill="#000"/><path d="M543.058,205.378a12.237,12.237,0,0,0-8.971-3.74,12.471,12.471,0,0,0-9.068,3.71,12.638,12.638,0,0,0,.365,18.388,12.935,12.935,0,0,0,17.657-.413,12.03,12.03,0,0,0,3.773-8.957,12.241,12.241,0,0,0-3.757-8.988M540.443,220.9a9.186,9.186,0,1,1-6.4-15.787,8.635,8.635,0,0,1,6.435,2.664,9.5,9.5,0,0,1-.031,13.123" transform="translate(282.149 0.362)" fill="#000"/></g></svg>