<svg xmlns="http://www.w3.org/2000/svg" width="287.666" height="74.993" viewBox="0 0 287.666 74.993"><g transform="translate(-276.279 -201.638)"><rect width="6.166" height="40.864" transform="translate(277.945 202.392)" fill="#000"/><path d="M463.207,243.256h7.18l24.367-40.864h-7.179Z" fill="#000"/><path d="M341.706,207.434a15.925,15.925,0,0,1,4.238.552l3.061-5.132a21.11,21.11,0,0,0-7.219-1.215,20.809,20.809,0,0,0-15.137,6.193,20.011,20.011,0,0,0-6.327,14.82q0,9.819,6.934,15.881c.1.091.21.175.316.264l3.155-5.293a15.772,15.772,0,0,1,.208-21.622,14.559,14.559,0,0,1,10.771-4.448" fill="#000"/><path d="M354.414,205.821l-3.022,5.069q.545.464,1.06.991a15.857,15.857,0,0,1-.053,21.912,14.7,14.7,0,0,1-10.85,4.448,14.3,14.3,0,0,1-5.766-1.177l-3.02,5.066a20.592,20.592,0,0,0,8.7,1.879,21.088,21.088,0,0,0,15.273-6.166,20.1,20.1,0,0,0,6.3-14.954,20.423,20.423,0,0,0-6.27-15.006,23.549,23.549,0,0,0-2.352-2.062" fill="#000"/><path d="M415.517,201.638a20.828,20.828,0,0,0-15.14,6.193,20.017,20.017,0,0,0-6.323,14.821q0,9.819,6.933,15.881a21.594,21.594,0,0,0,29.481-.69,20.086,20.086,0,0,0,6.3-14.954,21.369,21.369,0,0,0-21.251-21.251m10.613,32.155a15.337,15.337,0,1,1-10.692-26.36,14.42,14.42,0,0,1,10.744,4.448,15.861,15.861,0,0,1-.052,21.912" fill="#000"/><path d="M557.673,207.883a20.431,20.431,0,0,0-14.979-6.245,20.822,20.822,0,0,0-15.14,6.194,20.015,20.015,0,0,0-6.323,14.82q0,9.821,6.933,15.881a21.6,21.6,0,0,0,29.481-.689,20.087,20.087,0,0,0,6.3-14.955,20.437,20.437,0,0,0-6.272-15.006m-4.366,25.91a15.336,15.336,0,1,1-10.692-26.359,14.418,14.418,0,0,1,10.744,4.448,15.86,15.86,0,0,1-.052,21.911" fill="#000"/><path d="M557.9,276.614c2.3,0,4.528-1.524,4.528-3.938,0-1.439-1.19-2.432-2.314-3.408l-1.074-.942c-1.123-.993-1.669-1.438-1.669-2.294,0-.822.86-1.353,2.082-1.353,1.736,0,2.578.976,2.512,2.243-.049,1.01.033,2,.612,2h.066l1.3-4.179h-.1c-.644,0-.81.908-1.239.908-.595,0-1.14-1.2-3.157-1.2-1.883,0-3.767,1.25-3.767,3.185a4.808,4.808,0,0,0,2.049,3.63l.925.8c1.438,1.25,2.049,1.8,2.049,2.569,0,.976-1.09,1.729-2.809,1.729-2.032,0-3.007-.89-2.991-2.311.017-1.353-.116-2.141-.628-2.141h-.016l-1.389,4.469h.067c.694,0,.875-.941,1.437-.941.612,0,1.19,1.164,3.52,1.164m-11.9-.223c-1.388,0-2.165-.976-2.165-3.527,0-2.534,1.405-8.185,4.446-8.185,1.388,0,2.164.976,2.164,3.527,0,2.535-1.4,8.185-4.445,8.185m-4.991-4.64c0,3.339,2.3,4.863,5.024,4.863a7.823,7.823,0,0,0,7.238-7.3c0-3.339-2.3-4.863-5.024-4.863a7.824,7.824,0,0,0-7.238,7.3m-3.338,4.709.067-.223h-1.669l3.569-11.4h1.669l.066-.223h-6.147l-.066.223h1.669l-3.57,11.4h-1.669l-.066.223Zm-15.186-.206,3.586-11.438h.793c1.636,0,2.6.925,2.6,3.014,0,3.15-1.471,8.424-6.032,8.424Zm4.4-11.644h-5.222l-.066.223h1.669l-3.586,11.4h-1.653l-.066.223h5.453c5.355,0,8.808-3.391,8.808-7.449,0-2.757-2.148-4.4-5.337-4.4m-10.048,7.518c-.793,2.534-2.115,4.126-4.627,4.126-2.131,0-2.429-1.335-1.454-4.435l2.2-6.986h1.669l.066-.223h-6.131l-.066.223h1.653l-2.3,7.295c-1.025,3.253,1.14,4.486,3.966,4.486,3.057,0,4.445-1.8,5.288-4.486l2.28-7.295h1.669l.083-.223H517.56l-.067.223h1.62Zm-20.871-7.518-1.52,4.829h.165c.711,0,1.471-1.233,1.9-2.243.727-1.729,1.322-2.363,2.991-2.363h.677l-3.569,11.4h-1.835l-.066.223h6.478l.066-.223h-1.834l3.569-11.4h.711c1.636,0,1.719.651,1.537,2.432-.083.787-.215,2.174.429,2.174h.166l1.5-4.829Zm-8.13,12c2.3,0,4.528-1.524,4.528-3.938,0-1.439-1.19-2.432-2.314-3.408l-1.074-.942c-1.124-.993-1.669-1.438-1.669-2.294,0-.822.859-1.353,2.082-1.353,1.735,0,2.578.976,2.512,2.243-.05,1.01.033,2,.611,2h.067l1.3-4.179h-.1c-.645,0-.81.908-1.239.908-.595,0-1.141-1.2-3.157-1.2-1.884,0-3.768,1.25-3.768,3.185a4.809,4.809,0,0,0,2.05,3.63l.925.8c1.438,1.25,2.049,1.8,2.049,2.569,0,.976-1.091,1.729-2.809,1.729-2.033,0-3.008-.89-2.991-2.311.016-1.353-.116-2.141-.628-2.141H484.2l-1.388,4.469h.066c.694,0,.876-.941,1.438-.941.611,0,1.19,1.164,3.52,1.164m-19.466-12v3.905h.066c.545,0,.611-1.1.908-2.107.331-1.147.6-1.575,2.347-1.575h.793v11.4h-1.834v.223h5.321v-.223h-1.834v-11.4h.793c1.752,0,2.016.428,2.347,1.575.3,1.011.363,2.107.908,2.107h.067V264.61Zm-2.5.223h1.669v-.223h-3.619v.223h1.669v10.6h-.016l-5.172-9.349c-.7-1.25-.86-1.473-2.3-1.473h-1.669v.223H458.1v11.4h-1.669v.223h3.636v-.223H458.4V265.912h.016l5.041,9.264c.578,1.061.958,1.455,1.536,1.455.876,0,.876-.839.876-1.627Zm-17.037,5.223v-5.223H450.9c1.751,0,2.181.514,2.511,1.575.314,1.011.265,1.85.81,1.85h.066V264.61H445.51v.223h1.67v11.4h-1.67v.223h9.354v-3.9H454.8c-.546,0-.546,1.044-.86,2.037-.33,1.028-.776,1.644-2.512,1.644h-2.594v-5.959h.925c1.042,0,1.339.257,1.587.976.215.6.33,1.148.71,1.148h.05v-4.47h-.05c-.38,0-.495.548-.71,1.148-.231.7-.545.976-1.587.976Zm-9.056-5.634c-2.908,0-5.337,2.517-5.337,6.1s2.33,6.113,5.288,6.113a4.065,4.065,0,0,0,4.3-3.938l-.264-.052a3.776,3.776,0,0,1-3.983,3.716c-2.247,0-3.437-2.02-3.437-5.839s1.24-5.839,3.47-5.839a2.846,2.846,0,0,1,2.892,2.02c.232.925.48,1.935.992,1.935h.066v-4.041h-.033c-.512,0-.38.788-.909.788s-1.3-.959-3.041-.959m-9.981,3.031c0,2.329-.958,2.74-2.2,2.74h-1.769v-5.377h1.355c1.488,0,2.611.565,2.611,2.637m-7.287-2.62h1.669v11.4h-1.669v.223h4.875v-.223h-1.554v-5.822h1.719c1.421,0,2.115.137,2.347,2.911l.049.514c.132,2,.926,2.791,2.248,2.791,1.057,0,1.421-.616,1.586-1.438l-.215-.052c-.116.754-.479,1.2-.975,1.2-.578,0-.777-.651-.843-2.209l-.016-.36a3.332,3.332,0,0,0-3.09-3.493v-.017c1.7-.291,3.007-1.233,3.007-2.859,0-2.055-2.3-2.826-4.379-2.826-.975,0-2.462.034-3.222.034h-1.537Zm-7.6,5.223v-5.223h2.066c1.752,0,2.181.514,2.512,1.575.314,1.011.264,1.85.81,1.85h.066V264.61h-8.775v.223h1.669v11.4h-1.669v.223h9.353v-3.9h-.066c-.545,0-.545,1.044-.859,2.037-.331,1.028-.777,1.644-2.512,1.644h-2.6v-5.959h.926c1.041,0,1.338.257,1.586.976.215.6.331,1.148.711,1.148h.049v-4.47h-.049c-.38,0-.5.548-.711,1.148-.231.7-.545.976-1.586.976Zm-13.649-5.223h1.669v11.4h-1.669v.223h5.189v-.223h-1.868v-4.914h1.851c2.165,0,4.33-1.2,4.33-3.374,0-2.26-2.314-3.373-4.611-3.373-.975,0-2.594.034-3.355.034h-1.536Zm7.651,3.116c0,2.5-1.025,3.151-2.776,3.151h-1.554v-6.267h1.62c1.768,0,2.71.8,2.71,3.116m-14.079,2.706c0,3.99-1.5,5.6-4.313,5.6h-1.108V264.816h1.008c2.777,0,4.413,1.849,4.413,5.839m1.883,0c0-3.921-2.776-6.079-6.329-6.079-.611,0-2.214.034-2.809.034h-1.487v.223h1.669v11.4h-1.669v.223h1.471c.776,0,2.247.034,3.09.034,3.272,0,6.064-1.918,6.064-5.839m-18.227-.6v-5.223h2.066c1.752,0,2.181.514,2.512,1.575.314,1.011.264,1.85.81,1.85h.066V264.61h-8.775v.223h1.669v11.4h-1.669v.223h9.353v-3.9h-.066c-.545,0-.545,1.044-.859,2.037-.331,1.028-.777,1.644-2.512,1.644h-2.6v-5.959h.926c1.041,0,1.338.257,1.586.976.215.6.331,1.148.711,1.148h.049v-4.47h-.049c-.38,0-.5.548-.711,1.148-.231.7-.545.976-1.586.976Zm-8.047-2.6c0,2.329-.959,2.74-2.2,2.74h-1.768v-5.377h1.355c1.487,0,2.611.565,2.611,2.637m-7.288-2.62h1.669v11.4H363.15v.223h4.875v-.223h-1.553v-5.822h1.718c1.422,0,2.116.137,2.347,2.911l.05.514c.132,2,.925,2.791,2.247,2.791,1.058,0,1.421-.616,1.586-1.438l-.214-.052c-.116.754-.48,1.2-.975,1.2-.579,0-.777-.651-.843-2.209l-.017-.36a3.331,3.331,0,0,0-3.09-3.493v-.017c1.7-.291,3.008-1.233,3.008-2.859,0-2.055-2.3-2.826-4.38-2.826-.974,0-2.462.034-3.222.034H363.15Zm-3.288,5.822c0,3.99-1.5,5.6-4.313,5.6h-1.107V264.816h1.008c2.776,0,4.412,1.849,4.412,5.839m1.884,0c0-3.921-2.777-6.079-6.329-6.079-.612,0-2.215.034-2.81.034H351.12v.223h1.669v11.4H351.12v.223h1.471c.776,0,2.247.034,3.09.034,3.272,0,6.065-1.918,6.065-5.839m-13.039-5.822h1.669v-.223h-3.619v.223h1.67v10.6h-.017l-5.172-9.349c-.694-1.25-.86-1.473-2.3-1.473h-1.669v.223h1.669v11.4h-1.669v.223h3.635v-.223h-1.669V265.912h.017l5.04,9.264c.578,1.061.958,1.455,1.537,1.455.875,0,.875-.839.875-1.627Zm-11.831,7.123c0,3.391-1.389,4.333-3.372,4.333-2.181,0-2.842-1.456-2.842-4.47v-6.986h1.669v-.223h-4.974v.223h1.653v7.295c0,3.561,1.867,4.5,4.3,4.5,2.4,0,3.883-1.079,3.883-4.692v-7.106h1.67v-.223h-3.653v.223h1.67Zm-10.312,4.5v-.223h-1.669v-11.4h1.669v-.223h-4.991v.223h1.669V270h-5.42v-5.171h1.669v-.223H314.5v.223h1.669v11.4H314.5v.223h4.99v-.223h-1.669v-5.976h5.42v5.976h-1.669v.223Zm-22.8-6.4v-5.223h2.065c1.752,0,2.182.514,2.512,1.575.314,1.011.264,1.85.81,1.85h.066V264.61h-8.775v.223h1.669v11.4h-1.669v.223h9.353v-3.9h-.066c-.545,0-.545,1.044-.859,2.037-.331,1.028-.777,1.644-2.512,1.644H303.76v-5.959h.925c1.041,0,1.339.257,1.586.976.215.6.331,1.148.711,1.148h.05v-4.47h-.05c-.38,0-.5.548-.711,1.148-.231.7-.545.976-1.586.976Zm-5.735-5.223h1.67v-.223h-3.619v.223h1.669v10.6h-.017l-5.172-9.349c-.694-1.25-.86-1.473-2.3-1.473H288.59v.223h1.669v11.4H288.59v.223h3.635v-.223h-1.669V265.912h.017l5.04,9.264c.578,1.061.958,1.455,1.537,1.455.875,0,.875-.839.875-1.627Zm-21.746,5.685c0,3.476,2.379,6.113,5.453,6.113s5.453-2.637,5.453-6.113-2.379-6.1-5.453-6.1-5.453,2.62-5.453,6.1m1.9,0c0-3.716,1.223-5.873,3.553-5.873s3.553,2.157,3.553,5.873c0,3.733-1.223,5.89-3.553,5.89s-3.553-2.157-3.553-5.89" fill="#000"/></g></svg>