<svg xmlns="http://www.w3.org/2000/svg" width="539" height="217.051" viewBox="0 0 539 217.051"><g transform="translate(-191.243 -214.057)"><g transform="translate(191.243 214.057)"><path d="M204.885,271.195a9.538,9.538,0,0,1-1.415-5.265,11.855,11.855,0,0,1,1.358-5.322,17.21,17.21,0,0,1,3.737-4.925,18.579,18.579,0,0,1,5.717-3.565,18.879,18.879,0,0,1,7.19-1.36,12.73,12.73,0,0,1,7.642,2.1A6.384,6.384,0,0,1,232,258.231q0,4.754-4.643,4.755a4.442,4.442,0,0,1-2.773-.905,3.079,3.079,0,0,1-1.189-2.6,3.171,3.171,0,0,1,.736-2.322,2.53,2.53,0,0,0,.736-1.868q0-2.943-3.849-2.944a12.649,12.649,0,0,0-4.7.793,9.18,9.18,0,0,0-3.283,2.151,8.7,8.7,0,0,0-1.925,3.057,9.792,9.792,0,0,0-.623,3.4,8.4,8.4,0,0,0,1.132,4.246,46.639,46.639,0,0,0,3.171,4.7l6.679,8.718a9.863,9.863,0,0,1,1.869,3.567,14.4,14.4,0,0,1,.509,3.792,11.864,11.864,0,0,1-1.925,6.736,17.182,17.182,0,0,1-4.812,4.812,22.211,22.211,0,0,1-6.227,2.888,22.816,22.816,0,0,1-6.283.961,21.427,21.427,0,0,1-4.982-.566,15.794,15.794,0,0,1-4.245-1.641,9.068,9.068,0,0,1-3-2.717,6.522,6.522,0,0,1-1.132-3.792,4.682,4.682,0,0,1,1.642-3.906,6.448,6.448,0,0,1,4.132-1.3,2.791,2.791,0,0,1,1.868.736,2.251,2.251,0,0,1,.85,1.755,5.864,5.864,0,0,1-.566,2.548,5.827,5.827,0,0,0-.566,2.547,4.083,4.083,0,0,0,1.755,3.793,8.666,8.666,0,0,0,4.585,1.075,13.13,13.13,0,0,0,5.037-.906,12.932,12.932,0,0,0,3.737-2.263,9.409,9.409,0,0,0,2.321-3.057,7.568,7.568,0,0,0,.793-3.171,10.746,10.746,0,0,0-.736-4.076,18.917,18.917,0,0,0-2.435-4.076L208,275.666Q206.3,273.4,204.885,271.195Z" transform="translate(-191.243 -214.755)" fill="#000"/><path d="M254.556,215.641l.453-1.584H272.9L253.99,265.344h.227q1.7-2.263,3.962-4.811a39.151,39.151,0,0,1,4.981-4.7,29.509,29.509,0,0,1,5.718-3.567,14.083,14.083,0,0,1,6.057-1.416,10.7,10.7,0,0,1,7.529,2.548,8.2,8.2,0,0,1,2.774,6.283,11.952,11.952,0,0,1-.623,3.793q-.622,1.867-1.528,4.472l-7.358,20.946q-.68,1.925-1.246,3.792a12.609,12.609,0,0,0-.566,3.68,5.474,5.474,0,0,0,.566,2.491,2.391,2.391,0,0,0,2.377,1.132,6.586,6.586,0,0,0,3.737-1.132,16.223,16.223,0,0,0,3.114-2.717,20.223,20.223,0,0,0,2.434-3.34q1.02-1.754,1.585-3l1.246.566q-.568,1.133-1.585,3a19.228,19.228,0,0,1-2.66,3.68,15.221,15.221,0,0,1-4.019,3.114,11.629,11.629,0,0,1-5.661,1.3,11.168,11.168,0,0,1-6.113-1.584q-2.491-1.585-2.491-5.208a12.568,12.568,0,0,1,.4-3.058q.4-1.583.963-3.4l9.51-27.059a14.915,14.915,0,0,0,.906-4.529,4.844,4.844,0,0,0-.962-2.83,3.956,3.956,0,0,0-3.454-1.359,12.053,12.053,0,0,0-5.774,1.868,32.216,32.216,0,0,0-6.567,5.1,46.944,46.944,0,0,0-6.17,7.586,43.281,43.281,0,0,0-4.7,9.453L242.1,300.1H234.29l30.569-84.462Z" transform="translate(-192.062 -214.057)" fill="#000"/><path d="M297.135,270.288a35.936,35.936,0,0,1,7.189-10.245A34.557,34.557,0,0,1,314,253.25a24.041,24.041,0,0,1,10.189-2.492,15.707,15.707,0,0,1,7.7,1.812,17.142,17.142,0,0,1,5.435,4.642,19.469,19.469,0,0,1,3.17,6.227,22.8,22.8,0,0,1,1.018,6.567,28.055,28.055,0,0,1-2.829,12.4,38.882,38.882,0,0,1-7.134,10.246,33.984,33.984,0,0,1-9.566,6.963,23.034,23.034,0,0,1-10.02,2.547,16.358,16.358,0,0,1-7.3-1.584,17.924,17.924,0,0,1-5.547-4.189,18.349,18.349,0,0,1-3.567-6.058,21.322,21.322,0,0,1-1.246-7.3A29.232,29.232,0,0,1,297.135,270.288Zm7.416,27.625a9.571,9.571,0,0,0,7.076,2.774,11.619,11.619,0,0,0,6.567-2.038,22.608,22.608,0,0,0,5.547-5.377,43.329,43.329,0,0,0,4.415-7.416,66.622,66.622,0,0,0,3.226-8.152,64.433,64.433,0,0,0,1.982-7.7,33.356,33.356,0,0,0,.679-5.888q0-5.434-2.32-8.6t-8.1-3.171a11.19,11.19,0,0,0-6.227,1.925,22.485,22.485,0,0,0-5.377,5.038,39.2,39.2,0,0,0-4.358,7.077,59.009,59.009,0,0,0-3.228,8.1,62.516,62.516,0,0,0-1.981,8.038,40.571,40.571,0,0,0-.679,6.849Q301.777,295.141,304.551,297.913Z" transform="translate(-193.204 -214.755)" fill="#000"/><path d="M350.339,270.288a35.938,35.938,0,0,1,7.189-10.245,34.548,34.548,0,0,1,9.681-6.793,24.034,24.034,0,0,1,10.188-2.492,15.707,15.707,0,0,1,7.7,1.812,17.143,17.143,0,0,1,5.435,4.642,19.47,19.47,0,0,1,3.17,6.227,22.8,22.8,0,0,1,1.018,6.567,28.041,28.041,0,0,1-2.829,12.4,38.88,38.88,0,0,1-7.134,10.246,33.985,33.985,0,0,1-9.566,6.963,23.033,23.033,0,0,1-10.02,2.547,16.358,16.358,0,0,1-7.3-1.584,17.923,17.923,0,0,1-5.547-4.189,18.349,18.349,0,0,1-3.567-6.058,21.322,21.322,0,0,1-1.246-7.3A29.232,29.232,0,0,1,350.339,270.288Zm7.416,27.625a9.572,9.572,0,0,0,7.076,2.774,11.619,11.619,0,0,0,6.567-2.038,22.607,22.607,0,0,0,5.547-5.377,43.329,43.329,0,0,0,4.415-7.416,66.465,66.465,0,0,0,3.226-8.152,64.433,64.433,0,0,0,1.982-7.7,33.36,33.36,0,0,0,.679-5.888q0-5.434-2.32-8.6t-8.1-3.171a11.19,11.19,0,0,0-6.227,1.925,22.486,22.486,0,0,0-5.377,5.038,39.2,39.2,0,0,0-4.358,7.077,58.875,58.875,0,0,0-3.227,8.1,62.369,62.369,0,0,0-1.982,8.038,40.577,40.577,0,0,0-.679,6.849Q354.981,295.141,357.755,297.913Z" transform="translate(-194.216 -214.755)" fill="#000"/><path d="M428.482,240.948l-4.076,11.1h12.341l-.452,1.584H423.954l-12.907,36q-.568,1.7-1.133,3.51a12.058,12.058,0,0,0-.566,3.624,4.105,4.105,0,0,0,.849,2.716,3.416,3.416,0,0,0,2.774,1.019,6.672,6.672,0,0,0,3.849-1.245,18.381,18.381,0,0,0,3.283-2.888,21.922,21.922,0,0,0,2.491-3.339,27.312,27.312,0,0,0,1.472-2.717l1.359.566q-.455.908-1.471,2.774a19.488,19.488,0,0,1-2.718,3.736,15.534,15.534,0,0,1-4.246,3.227,12.714,12.714,0,0,1-6.057,1.358q-4.3,0-6.453-2.093a6.774,6.774,0,0,1-2.15-5.038,18.5,18.5,0,0,1,.849-5.152q.849-2.887,1.755-5.264l11.1-30.8h-10.19l.453-1.584h10.189l4.076-11.1Z" transform="translate(-195.259 -214.569)" fill="#000"/><path d="M468.806,284.95h1.246a42.074,42.074,0,0,0,2.038,5.491,19.377,19.377,0,0,0,3.339,5.094,16.435,16.435,0,0,0,5.151,3.794,16.84,16.84,0,0,0,7.359,1.471,10.21,10.21,0,0,0,6.454-2.208q2.828-2.207,2.83-7.19,0-4.3-2.207-6.056a17.283,17.283,0,0,0-5.152-2.774l-8.831-3.058q-1.7-.564-3.68-1.415a13.352,13.352,0,0,1-3.68-2.378,11.6,11.6,0,0,1-2.773-3.905,14.908,14.908,0,0,1-1.076-6.114,13.944,13.944,0,0,1,1.246-5.888,15.006,15.006,0,0,1,8.548-7.925,18.332,18.332,0,0,1,6.51-1.132,16.605,16.605,0,0,1,4.019.4q1.527.4,2.66.793t2.038.793a5.309,5.309,0,0,0,2.152.4,1.976,1.976,0,0,0,1.811-.905h1.246v12.907h-1.246A49.118,49.118,0,0,0,497,260.325a19.341,19.341,0,0,0-2.435-4.133,9.9,9.9,0,0,0-3.51-2.83,11.156,11.156,0,0,0-4.924-1.019q-5.436,0-8.434,2.435a7.952,7.952,0,0,0-3,6.51,6.38,6.38,0,0,0,2.548,5.491,26.663,26.663,0,0,0,7.529,3.452l8.265,2.718a23.843,23.843,0,0,1,8.718,4.981,10.921,10.921,0,0,1,3.4,8.377,15.888,15.888,0,0,1-1.189,6,14.57,14.57,0,0,1-3.509,5.152,17.912,17.912,0,0,1-5.661,3.566,20.145,20.145,0,0,1-7.642,1.36,19.388,19.388,0,0,1-4.585-.51q-2.1-.509-3.85-1.075t-3.226-1.076a8.37,8.37,0,0,0-2.717-.51,2.659,2.659,0,0,0-1.811.51,4.744,4.744,0,0,0-.906,1.076h-1.246Z" transform="translate(-196.524 -214.755)" fill="#000"/><path d="M512.087,298.6H520.8V220.143h-8.717v-1.585H530.54v44.494h.228a23.5,23.5,0,0,1,1.924-3.68,17.863,17.863,0,0,1,3.68-4.188,21.692,21.692,0,0,1,5.661-3.4,20.4,20.4,0,0,1,7.982-1.416q7.472,0,12.171,3.624t4.7,11.548V298.6H575.6v1.586H548.428V298.6h8.719V262.034a11.868,11.868,0,0,0-2.1-7.246q-2.1-2.828-6.509-2.83a15.7,15.7,0,0,0-6.907,1.585,18.142,18.142,0,0,0-5.774,4.415,20.926,20.926,0,0,0-3.906,6.679,24.109,24.109,0,0,0-1.416,8.378V298.6h8.719v1.586H512.087Z" transform="translate(-197.347 -214.143)" fill="#000"/><path d="M582.6,276.572a22.267,22.267,0,0,1,2.435-10.3,28.623,28.623,0,0,1,14.719-13.586,23.069,23.069,0,0,1,18.454,0,28.631,28.631,0,0,1,14.719,13.586,22.3,22.3,0,0,1,2.434,10.3,22.786,22.786,0,0,1-2.264,10.02,28.09,28.09,0,0,1-14.378,13.756,24.275,24.275,0,0,1-19.474,0,28.08,28.08,0,0,1-14.378-13.756A22.758,22.758,0,0,1,582.6,276.572Zm11.322,0a52.342,52.342,0,0,0,1.246,12.793,19.668,19.668,0,0,0,3.282,7.3,9.457,9.457,0,0,0,4.756,3.34,21.427,21.427,0,0,0,11.548,0,9.458,9.458,0,0,0,4.755-3.34,19.7,19.7,0,0,0,3.283-7.3,52.446,52.446,0,0,0,1.245-12.793,60.086,60.086,0,0,0-.9-11.378,21.354,21.354,0,0,0-2.775-7.472,10.713,10.713,0,0,0-4.7-4.133,18.531,18.531,0,0,0-13.36,0,10.707,10.707,0,0,0-4.7,4.133,21.312,21.312,0,0,0-2.774,7.472A60,60,0,0,0,593.924,276.572Z" transform="translate(-198.689 -214.755)" fill="#000"/><path d="M644.464,276.572a22.278,22.278,0,0,1,2.434-10.3,28.633,28.633,0,0,1,14.719-13.586,23.069,23.069,0,0,1,18.454,0,28.621,28.621,0,0,1,14.719,13.586,22.291,22.291,0,0,1,2.435,10.3,22.787,22.787,0,0,1-2.265,10.02,28.081,28.081,0,0,1-14.378,13.756,24.275,24.275,0,0,1-19.474,0,28.09,28.09,0,0,1-14.378-13.756A22.759,22.759,0,0,1,644.464,276.572Zm11.322,0a52.352,52.352,0,0,0,1.245,12.793,19.669,19.669,0,0,0,3.283,7.3,9.458,9.458,0,0,0,4.755,3.34,21.427,21.427,0,0,0,11.548,0,9.456,9.456,0,0,0,4.756-3.34,19.7,19.7,0,0,0,3.282-7.3,52.442,52.442,0,0,0,1.246-12.793A60.081,60.081,0,0,0,685,265.194a21.353,21.353,0,0,0-2.774-7.472,10.718,10.718,0,0,0-4.7-4.133,18.531,18.531,0,0,0-13.36,0,10.7,10.7,0,0,0-4.7,4.133,21.315,21.315,0,0,0-2.775,7.472A60.015,60.015,0,0,0,655.786,276.572Z" transform="translate(-199.866 -214.755)" fill="#000"/><path d="M703.094,251.958h8.718V237.352q.9.34,1.7.566a11.067,11.067,0,0,0,2.716.227,9.706,9.706,0,0,0,2.944-.4,7.356,7.356,0,0,0,2.378-1.3v15.511h16.077v1.584H721.549v37.023a17.545,17.545,0,0,0,.623,5.151,7.742,7.742,0,0,0,1.642,3.057,4.894,4.894,0,0,0,2.207,1.416,8.414,8.414,0,0,0,2.321.34,7.961,7.961,0,0,0,6.4-2.888,13.965,13.965,0,0,0,3.114-6.623l1.585.565a26.08,26.08,0,0,1-1.019,3.284,11.446,11.446,0,0,1-2.094,3.453,10.989,10.989,0,0,1-3.68,2.717,13.171,13.171,0,0,1-5.66,1.076q-8.492,0-11.832-3.284t-3.34-9.284v-36h-8.718Z" transform="translate(-200.981 -214.483)" fill="#000"/></g><g transform="translate(195.928 321.356)"><path d="M196.019,399.306h1.622a59.132,59.132,0,0,0,4.2,13.406,38.731,38.731,0,0,0,5.672,8.988,25.176,25.176,0,0,0,6.482,5.45,27.968,27.968,0,0,0,6.85,2.8,32.955,32.955,0,0,0,6.629,1.031q3.165.144,5.966.147,7.806,0,12.816-2.357a22.3,22.3,0,0,0,7.956-5.966A21.486,21.486,0,0,0,258.335,415a28.865,28.865,0,0,0,1.178-7.735,18.974,18.974,0,0,0-1.915-8.839,21.294,21.294,0,0,0-4.862-6.262,27.344,27.344,0,0,0-6.409-4.2,44.312,44.312,0,0,0-6.556-2.5L222.831,380.3q-11.932-3.682-18.046-9.723t-6.114-16.2a31.711,31.711,0,0,1,2.358-12.3,28.777,28.777,0,0,1,6.628-9.8,30.911,30.911,0,0,1,10.238-6.481,39.126,39.126,0,0,1,21.656-1.473,38.644,38.644,0,0,1,5.966,1.988q2.5,1.105,4.493,1.989a9.893,9.893,0,0,0,4.051.884,4.49,4.49,0,0,0,2.578-.515,9.937,9.937,0,0,0,1.841-2.579h2.063v26.665h-1.768a43.924,43.924,0,0,0-3.02-10.238,31.628,31.628,0,0,0-5.524-8.692,25.963,25.963,0,0,0-8.176-6.04,25.587,25.587,0,0,0-11.122-2.284,35.94,35.94,0,0,0-7.809.958,24.676,24.676,0,0,0-7.955,3.315,19.89,19.89,0,0,0-6.113,6.187,17.849,17.849,0,0,0-2.431,9.722,15.793,15.793,0,0,0,1.915,8.029,18.6,18.6,0,0,0,4.935,5.6,30.236,30.236,0,0,0,6.777,3.83q3.757,1.548,7.587,2.726l17.826,5.6q2.8.883,7.071,2.356a31.852,31.852,0,0,1,8.324,4.42,25.582,25.582,0,0,1,6.924,7.808q2.872,4.862,2.872,12.375a34.313,34.313,0,0,1-2.578,13.184,32.965,32.965,0,0,1-7.44,11.049,36.491,36.491,0,0,1-11.784,7.661,40.429,40.429,0,0,1-15.616,2.872q-3.094,0-5.451-.073a40.681,40.681,0,0,1-4.419-.369q-2.064-.3-4.125-.663a43.249,43.249,0,0,1-4.566-1.1q-2.949-.884-6.335-2.063a18.388,18.388,0,0,0-5.893-1.178,4.026,4.026,0,0,0-3.019.884,7.642,7.642,0,0,0-1.4,2.357h-2.21Z" transform="translate(-196.019 -323.437)" fill="#000"/><path d="M286.424,428.969h16.352V328.2H286.424V326.14H333.86V328.2H317.507v48.174h49.058V328.2H350.212V326.14h47.436V328.2H381.3V428.969h16.352v2.063H350.212v-2.063h16.353V378.438H317.507v50.531H333.86v2.063H286.424Z" transform="translate(-197.739 -323.488)" fill="#000"/><path d="M411.517,378.386a51.232,51.232,0,0,1,4.641-21.8A60.774,60.774,0,0,1,428.091,339.2a55.727,55.727,0,0,1,16.426-11.565,43.391,43.391,0,0,1,18.267-4.2,45.162,45.162,0,0,1,18.931,4.2A54.518,54.518,0,0,1,498.14,339.2,56.986,56.986,0,0,1,509.7,356.584a54.219,54.219,0,0,1,4.346,21.8,53.539,53.539,0,0,1-3.978,20.183,58.538,58.538,0,0,1-10.9,17.532,55.268,55.268,0,0,1-16.279,12.375,44.075,44.075,0,0,1-20.109,4.714,46.362,46.362,0,0,1-20.477-4.566,52.546,52.546,0,0,1-16.279-12.153,55.829,55.829,0,0,1-10.68-17.532A56.659,56.659,0,0,1,411.517,378.386Zm16.942,0a132.668,132.668,0,0,0,1.768,23.129,46.584,46.584,0,0,0,5.892,16.5,26.161,26.161,0,0,0,10.607,9.871q6.48,3.242,16.058,3.241,9.426,0,15.984-3.241a26.061,26.061,0,0,0,10.681-9.871,46.622,46.622,0,0,0,5.892-16.5,132.558,132.558,0,0,0,1.769-23.129,142.363,142.363,0,0,0-1.325-19.667,53.852,53.852,0,0,0-5.083-16.941,30.241,30.241,0,0,0-10.459-11.859q-6.705-4.42-17.457-4.42t-17.457,4.42a30.226,30.226,0,0,0-10.459,11.859,53.851,53.851,0,0,0-5.082,16.941A142.211,142.211,0,0,0,428.459,378.386Z" transform="translate(-200.119 -323.437)" fill="#000"/><path d="M533.457,378.386a51.246,51.246,0,0,1,4.64-21.8A60.774,60.774,0,0,1,550.03,339.2a55.727,55.727,0,0,1,16.426-11.565,43.391,43.391,0,0,1,18.267-4.2,45.156,45.156,0,0,1,18.931,4.2A54.517,54.517,0,0,1,620.079,339.2a56.986,56.986,0,0,1,11.566,17.384,54.218,54.218,0,0,1,4.345,21.8,53.537,53.537,0,0,1-3.977,20.183,58.557,58.557,0,0,1-10.9,17.532,55.254,55.254,0,0,1-16.279,12.375,44.075,44.075,0,0,1-20.109,4.714,46.368,46.368,0,0,1-20.477-4.566,52.529,52.529,0,0,1-16.278-12.153,55.831,55.831,0,0,1-10.681-17.532A56.679,56.679,0,0,1,533.457,378.386Zm16.941,0a132.757,132.757,0,0,0,1.768,23.129,46.564,46.564,0,0,0,5.893,16.5,26.159,26.159,0,0,0,10.606,9.871q6.482,3.242,16.057,3.241,9.428,0,15.984-3.241a26.055,26.055,0,0,0,10.681-9.871,46.606,46.606,0,0,0,5.893-16.5,132.66,132.66,0,0,0,1.769-23.129,142.209,142.209,0,0,0-1.326-19.667,53.83,53.83,0,0,0-5.083-16.941,30.234,30.234,0,0,0-10.459-11.859q-6.7-4.42-17.457-4.42t-17.456,4.42a30.229,30.229,0,0,0-10.46,11.859,53.853,53.853,0,0,0-5.081,16.941A142.058,142.058,0,0,0,550.4,378.386Z" transform="translate(-202.439 -323.437)" fill="#000"/><path d="M670.457,428.969h16.352V328.2h-8.544a48.152,48.152,0,0,0-6.629.517,19.016,19.016,0,0,0-7.44,2.871,25.55,25.55,0,0,0-7.218,7.44q-3.464,5.082-5.966,14.069H649.39V326.14h89.57V353.1h-1.62q-2.509-8.983-5.966-14.069a25.575,25.575,0,0,0-7.22-7.44,19.029,19.029,0,0,0-7.439-2.871,48.224,48.224,0,0,0-6.63-.517h-8.544V428.969h16.353v2.063H670.457Z" transform="translate(-204.645 -323.488)" fill="#000"/></g></g></svg>